<svg width="205" height="50" viewBox="0 0 205 50" fill="none" xmlns="http://www.w3.org/2000/svg">
<path d="M76.3856 15.1687C60.2201 10.8265 42.1883 17.9097 26.6271 11.7342C26.2446 11.5838 25.8418 11.4206 25.4364 11.492C25.11 11.5481 24.8321 11.7495 24.5644 11.9433C19.0926 15.9464 13.6183 19.947 8.14648 23.9501C11.66 23.537 23.1773 24.0291 26.3339 24.1745C32.4762 24.46 38.611 24.9547 44.7202 25.661C57.0227 27.0812 69.2284 29.3479 81.2199 32.4433C87.9513 34.1797 94.5194 36.7269 101.233 38.3894C97.4874 27.1806 87.7371 18.2182 76.3856 15.1687Z" fill="#CDD7E5"/>
<path d="M81.6508 15.7705C72.5966 12.0122 62.6194 11.1554 52.8207 10.9489C46.1557 10.8087 38.9169 10.7653 33.6619 6.66277C36.1326 6.37974 38.5548 5.67601 40.7961 4.59491C41.7267 6.14261 43.5371 6.90499 45.2709 7.41749C53.7845 9.929 62.956 8.70001 71.694 10.2579C83.0557 12.285 93.4485 19.2484 99.6419 28.9859C100.789 30.7885 101.898 33.0859 102.396 35.6356C100.723 31.6912 96.9366 26.7956 95.0472 24.8094C91.3093 20.8776 86.6534 17.8434 81.6534 15.7705H81.6508Z" fill="#CDD7E5"/>
<path d="M75.0112 7.46083C70.6741 6.53272 65.9341 6.44093 61.5281 5.95138C59.3813 5.7117 57.2242 5.41848 55.1767 4.73004C53.1293 4.04161 51.1812 2.92737 49.7916 1.27258C51.5663 1.46636 53.3893 1.19608 55.0314 0.5C55.2175 1.28532 55.7988 1.91767 56.4235 2.43017C58.1472 3.83763 60.3247 4.58981 62.5149 4.99267C64.7051 5.39298 66.9387 5.46692 69.1545 5.676C74.9399 6.22165 80.8068 7.7719 85.6718 11.0483C87.0283 11.9611 89.9069 14.3681 91.0186 15.5716C86.1817 11.4104 80.302 8.59547 75.0112 7.46338V7.46083Z" fill="#CDD7E5"/>
<path d="M102.393 42.2573C102.393 42.2573 63.7872 27.3846 5.45393 27.2189L0 31.1838C0 31.1838 48.7896 26.556 102.393 42.2548V42.2573Z" fill="#174A9D"/>
<path d="M128.401 15.2631C144.569 10.9209 162.598 18.0041 178.159 11.8286C178.542 11.6781 178.944 11.515 179.35 11.5864C179.676 11.6425 179.954 11.8439 180.222 12.0377C185.694 16.0408 191.168 20.0413 196.64 24.0445C193.126 23.6314 181.609 24.1235 178.452 24.2688C172.31 24.5544 166.175 25.0491 160.066 25.7553C147.763 27.1756 135.558 29.4423 123.566 32.5377C116.835 34.2741 110.267 36.8213 103.553 38.4837C107.299 27.275 117.049 18.3126 128.401 15.2631Z" fill="#CDD7E5"/>
<path d="M123.135 15.8649C132.19 12.1065 142.167 11.2498 151.968 11.0433C158.633 10.903 165.872 10.8597 171.127 6.75713C168.656 6.47411 166.234 5.77037 163.993 4.68928C163.062 6.23698 161.252 6.99936 159.518 7.51186C151.004 10.0234 141.833 8.79439 133.095 10.3523C121.733 12.3793 111.34 19.3427 105.147 29.0802C104.002 30.8829 102.89 33.1802 102.393 35.73C104.066 31.7855 107.852 26.89 109.741 24.9037C113.479 20.972 118.135 17.9378 123.135 15.8649Z" fill="#CDD7E5"/>
<path d="M129.775 7.55775C134.112 6.62964 138.852 6.53785 143.258 6.0483C145.405 5.80862 147.562 5.5154 149.609 4.82697C151.657 4.13853 153.605 3.02429 154.994 1.3695C153.22 1.56328 151.397 1.29301 149.755 0.596924C149.569 1.38225 148.987 2.01459 148.363 2.52709C146.639 3.93456 144.461 4.68673 142.271 5.08959C140.081 5.4899 137.847 5.56384 135.632 5.77292C129.846 6.31857 123.979 7.86882 119.114 11.1453C117.758 12.0581 114.879 14.465 113.767 15.6685C118.602 11.5073 124.484 8.6924 129.775 7.5603V7.55775Z" fill="#CDD7E5"/>
<path d="M102.393 42.3543C102.393 42.3543 140.999 27.4816 199.332 27.3158L204.786 31.2807C204.786 31.2807 155.997 26.6529 102.393 42.3517V42.3543Z" fill="#174A9D"/>
<path d="M27.3793 33.5933C27.3793 33.5933 69.3075 34.5392 102.393 44.7102V49.44C102.393 49.44 84.6238 40.215 27.3793 33.5907V33.5933Z" fill="#FFCA42"/>
<path d="M177.407 33.5933C177.407 33.5933 135.479 34.5392 102.393 44.7102V49.44C102.393 49.44 120.162 40.215 177.407 33.5907V33.5933Z" fill="#FFCA42"/>
</svg>
